<?xml version="1.0" encoding="utf-8"?>
<!-- Generator: Adobe Illustrator 22.1.0, SVG Export Plug-In . SVG Version: 6.00 Build 0)  -->
<svg version="1.1" id="Lager_1" xmlns="http://www.w3.org/2000/svg" xmlns:xlink="http://www.w3.org/1999/xlink" x="0px" y="0px"
	 viewBox="0 0 1500 1500" style="enable-background:new 0 0 1500 1500;" xml:space="preserve">
<style type="text/css">
	.st0{fill:#FFFFFF;}
</style>
<title>Rityta 1</title>
<path class="st0" d="M302.6,1023.2H164.4l-35.6,79.7H99.4l119-262.3H250L369,1103h-31.5L302.6,1023.2z M233.9,867.8l-58.4,130.4
	h116.1L233.9,867.8z"/>
<path class="st0" d="M381.6,838.4h27.2v166.4l116.5-93h40.4L472,984.3L572.6,1103h-36l-84.9-101l-43,32.7v68.3h-27.2V838.4z"/>
<path class="st0" d="M764.4,1042c-11,33.8-39.7,66.9-102.9,66.9c-78.2,0-104-54.7-104-101.4c0-53.3,32.7-101.4,104-101.4
	c49.2,0,107.7,21.3,107.7,108H584.7c0,39.7,28.3,72,76.8,72c45.6,0,66.1-15.1,75.7-44.1L764.4,1042z M742,993.5
	c-7.7-47-42.3-64.7-78.6-64.7c-34.9,0-72.4,18-78.6,64.7H742z"/>
<path class="st0" d="M796,911.9h27.2v43.7h0.7c9.9-22.8,27.9-49.6,73.1-49.6c5.4-0.1,10.8,0.4,16.2,1.5v27.9
	c-8.3-1.5-16.6-2.2-25-2.2c-29.4,0-65,18-65,72.4v97.4H796V911.9z"/>
<path class="st0" d="M929,840.6h149.2c51.4,0,73.1,29,73.1,66.1c0,25.3-14,48.9-45.2,56.2v0.7c34.5,5.1,55.5,30.5,55.5,64.3
	c0,54.8-46.3,75-86.7,75H929V840.6z M956.2,954.5h107.6c36.7,0,60.2-11.8,60.2-46.7c0-32-21.3-42.2-51.1-42.2H956.2L956.2,954.5z
	 M956.2,1078h114.3c35.3,0,61.7-14,61.7-50c0-37.8-23.5-48.5-55.1-48.5H956.2L956.2,1078z"/>
<path class="st0" d="M1184.7,840.6h141.4c40.4,0,79,20.2,79,75.7c0,49.6-32.7,76.4-91.1,76.4h-102.1V1103h-27.2L1184.7,840.6z
	 M1211.9,967.8H1317c45.6,0,58.8-20.9,58.8-51.4c0-39.3-22-50.7-53.3-50.7h-110.6L1211.9,967.8z"/>
<path class="st0" d="M303.8,1022.7H165.9l-35.6,79.6H101l118.8-261.9h31.6l118.9,261.9h-31.6L303.8,1022.7z M235.2,867.5
	l-58.3,130.2h115.9L235.2,867.5z"/>
<path class="st0" d="M382.7,838.2h27.1v166.2l116.3-92.8h40.3l-93.5,72.3l100.5,118.5h-36l-84.8-100.9l-42.9,32.6v68.2h-27.1V838.2z
	"/>
<path class="st0" d="M765,1041.4c-11,33.8-39.6,66.8-102.7,66.8c-78.1,0-103.8-54.7-103.8-101.2c0-53.2,32.7-101.2,103.8-101.2
	c49.2,0,107.5,21.3,107.5,107.8H585.6c0,39.6,28.2,71.9,76.7,71.9c45.5,0,66-15,75.6-44L765,1041.4z M742.6,993
	c-7.7-47-42.2-64.6-78.5-64.6c-34.9,0-72.3,18-78.5,64.6H742.6z"/>
<path class="st0" d="M796.5,911.5h27.2v43.7h0.7c9.9-22.7,27.9-49.5,73-49.5c5.4-0.1,10.8,0.4,16.1,1.5V935
	c-8.2-1.5-16.6-2.2-24.9-2.2c-29.3,0-64.9,18-64.9,72.3v97.2h-27.2V911.5z"/>
<path class="st0" d="M929.3,840.4h149c51.4,0,73,29,73,66c0,25.3-13.9,48.8-45.1,56.1v0.7c34.5,5.1,55.4,30.5,55.4,64.2
	c0,54.7-46.2,74.8-86.6,74.8H929.3V840.4z M956.4,954.1h107.5c36.7,0,60.2-11.7,60.2-46.6c0-31.9-21.3-42.2-51-42.2H956.4V954.1z
	 M956.4,1077.4h114.1c35.2,0,61.6-13.9,61.6-49.9c0-37.8-23.5-48.4-55-48.4H956.4V1077.4z"/>
<path class="st0" d="M1184.6,840.4h141.2c40.3,0,78.9,20.2,78.9,75.6c0,49.5-32.7,76.3-91,76.3h-102v110h-27.2L1184.6,840.4z
	 M1211.8,967.3h104.9c45.5,0,58.7-20.9,58.7-51.4c0-39.3-22-50.6-53.2-50.6h-110.4V967.3z"/>
<path class="st0" d="M932,518.7c-28.3-3.6-85.6-3.3-153.6,27.3c-27.2-11.9-55.8-20-85.2-24.3c-3.2-0.5-5.6-0.9-7.2-1.2
	c-10.8-2.3-17.3-7.9-18.8-14.3c-1.7-7.2-0.2-20.8,37.7-33.7c14.5-4.9,28.6-8.6,33-18.5c1.6-3.7,1.4-7.7-0.6-11.8
	c-7.7-16-27-17.8-34.9-17.8c-2.8,0-5.7,0.2-8.5,0.7c-10.8,2.3-19.6,9.8-22.3,14.4c-3.8,6.4-1.3,10.4,0.4,13.1
	c1.4,2.2,1.3,2.3,0.3,3.3c-22.4,24.1-41.6,75-46,87.4s-0.6,15.1,3.8,16.8c2.2,0.9,2.8,1.1,1.7,4.7c-1.1,3.4-2.7,6.6-4.7,9.5
	c-2.9,4.4-5.1,7.9-1.8,16.4c5.2,13,23.3,16.8,49,17.7c20.6,0.7,56-2.7,70.9-4.8c1.5,13.8-0.1,18.4-0.9,19.7
	c-0.5,0.9-1.2,1.3-5.4,2.3c-0.9,0.2-1.9,0.5-2.8,0.7c-49.7,14.1-60.5,20.8-64.8,29.5c-2.1,4.5-2.2,9.7-0.2,14.2l0.5,1.7
	c-4.7,1.3-23,7.2-29.4,8.4c-12.8-16.4-26.5-40.7-40.4-37.3c-4.2,1-7.7,7-8.6,12c-0.6,3.5-11.4,56.6-11.4,56.6
	c-2,9.8,5.9,20.7,15.5,23.5l6.3,1.7c17.8,30.4,48.6,55.8,85.7,67.5c49.7,15.6,102.4,1,104.8-12.1c2.1-11.6-15-24.7-52.3-40.1
	c13.3,0.3,24.3,0.5,29.5,0.5h0.4c14.9,0,26.6-4.8,32.2-13.2c3.9-5.8,4.3-12.9,1.3-19.8c-1.6-3.7-1.9-5.2-1.9-5.6
	c0.7-0.8,4.3-3.4,24.3-7.9c13.9-3.1,29-11.8,30.4-23.8c4.6-2.4,4.8-1.2,12.7-6.4c6.5-4.3,13.3-8.7,19.2-12c8.8-5,11.1-5.9,14.7-4
	c7.7,3.9,14.8,4.8,21.2,2.5c8-2.9,11.7-9.7,12.9-12.4c6.9-15.8,20-104.2,20-104.2C960.8,528.9,947.9,520.7,932,518.7z M695,453.2
	c6.1-4.2,0.5-9.7-4.3-9.3c5-5.1,16.5-9.5,26.6-2.2c9.3,6.7-1.8,12.5-9.9,14.8c-11.7,3.4-16.5,5-28.9,14.7
	C687,459.3,687.4,458.5,695,453.2L695,453.2z M671.8,591.7c-18.6,0.4-27.2-4-29.1-7.5c2.9-4.3,5.2-9,6.8-13.9c2.8-9.1,1-17.3-5-22.8
	c1.9-5.3,10.3-28,10.3-28s2.3,12,27.3,18.3c2.1,0.5,4.8,0.9,8.3,1.4c14.4,2.2,53.3,7.8,80.8,21.5c12.5,6.2,14.9,11.2,14.4,13.4
	c-0.6,2.7-3.8,5.3-11.3,7.8S730.2,592.7,671.8,591.7z M609.9,662.1c3.5-2.5,16.8,22.2,16.8,22.2s-20.1,1.7-20.2-6.5
	C607.4,668.5,608,663.5,609.9,662.1L609.9,662.1z M764.6,779.7c4.3,3,6.9,6.3,6.6,8.2c-0.2,1.3-2.1,2.5-5,3.4
	c-5.4,1.1-41.2,11.6-80.5-6.8c-31-14.5-40.6-23.1-56.1-41.6c10.5,2.3,23.1,5.7,31.3,6.7c6.3,0.8,27.2,2.5,45.8,3.2
	c5,2.2,8.7,3.8,13.4,5.6C735.6,764.2,750.4,771.3,764.6,779.7z M824.3,690.5c-22.8,5.1-31.3,9-34.9,16.2c-3.3,6.4-0.9,13.1,1.6,18.9
	c1.1,2.7,0.6,4,0,5c-2.4,3.7-10.1,6.1-19.4,6.1l0,0c-12.6-0.1-53.5-0.9-83.6-2.2c-14.3-0.6-24.1-1.3-29.2-1.9
	c-20.4-2.5-42.9-8.7-55.4-12.3c-3.1-1-5-4.1-4.4-7.3l3.7-18.4c9.8,16.6,51.4-1,60.4-3.9c39.9-12.7,106.3-23.2,148.5-18.8
	c22.5,2.3,29.8,7,30.9,8.7C841.9,682.2,835.9,687.9,824.3,690.5L824.3,690.5z M928.9,620.5c0,0-0.6,6.8-5.2,4.1
	c-3.1-1.8-10.1-6.6-12.7-8.7c-20-15.8-34.2-33.1-27.4-45.7c8.5-15.8,25-1.9,34.9,3.7c5.7,3.2,9.8,7,18,4.1L928.9,620.5z
	 M942.5,548.4l-2.3,12.8c-1.2,4.4-4.2,6.4-8.2,3.4c-42.7-32.1-67.7-7.8-64.7,16.4c2.9,23.4,20.5,35.7,41.2,52.8
	c2.5,2.1,8.8,5.3,6.9,7.4c-2.3,2.6-7.5-1-11.5-1.1c-8.1-0.3-15,3.6-21.7,7.3c-6.4,3.6-13.4,8.2-20.1,12.6c-6,3.9-7.1,3.3-11.4,5.6
	c-7.3-4.7-19.1-7.9-36.1-9.6C776.8,652,726.4,659,691,667l-1.2-3.6l-0.1-0.2c1.9-1.8,10.8-7.3,52.7-19.3c0.7-0.2,1.4-0.4,2.2-0.6
	c15.5-3.9,23.8-12.2,20.2-43.1c27-5.3,41.3-12.3,43.7-21.5c1.4-5.4-1.4-11.2-8.3-17.1c-1.9-1.6-3.9-3.2-6-4.8
	c14.8-8,71.8-28.4,131.1-22.5C934.3,535.2,943.7,539.2,942.5,548.4L942.5,548.4z"/>
</svg>
