<?xml version="1.0" encoding="utf-8"?>
<!-- Generator: Adobe Illustrator 22.1.0, SVG Export Plug-In . SVG Version: 6.00 Build 0)  -->
<svg version="1.1" id="Layer_1" xmlns="http://www.w3.org/2000/svg" xmlns:xlink="http://www.w3.org/1999/xlink" x="0px" y="0px"
	 viewBox="0 0 482.9 175.5" style="enable-background:new 0 0 482.9 175.5;" xml:space="preserve">
<style type="text/css">
	.st0{fill:#FFFFFF;}
</style>
<title>Artboard 1</title>
<path class="st0" d="M26.4,146.7c2.9-0.6,6.4-2.3,6.4-6.4c0.1-1.9-0.9-3.8-2.5-4.9c-1.5-1-3.6-1.5-6.9-1.5h-12v1.4
	c3.2,0.3,3.5,0.6,3.5,4.2v16.7c0,3.6-0.4,3.9-3.8,4.2v1.4h10.4c3.1,0.1,6.1-0.5,8.8-1.8c2.5-1.2,4-3.7,4-6.4c0-4.2-3.3-6.1-8-6.7
	L26.4,146.7L26.4,146.7z M19.8,146.3V138c0-1.1,0.1-1.7,0.5-1.9c0.6-0.4,1.4-0.5,2.1-0.5c3,0,5,1.9,5,5.4s-1.9,5.3-6.2,5.3H19.8z
	 M19.8,147.9h1.3c5,0,7.7,2,7.7,6.1c0,4.3-2.9,6.1-5.7,6.1c-2.4,0-3.3-0.9-3.3-4V147.9L19.8,147.9z M59.6,154.6
	c-0.5,1.5-1.3,2.9-2.3,4.1c-1,1.1-2.4,1.4-5,1.4c-1.4,0.1-2.7,0-4-0.5c-0.8-0.5-1-1.5-1-3.5v-7.6h3.3c3.7,0,4.1,0.2,4.7,3.3h1.5
	v-8.5h-1.5c-0.6,3-1,3.2-4.7,3.2h-3.3v-9.3c0-1.4,0.1-1.4,1.6-1.4h2.5c2.7,0,3.8,0.3,4.5,1.1c0.8,1.1,1.3,2.4,1.6,3.7l1.5-0.2
	c-0.2-2.5-0.4-5.5-0.4-6.4H38.7v1.4c3.1,0.3,3.5,0.4,3.5,4.2v16.7c0,3.6-0.4,3.9-4.1,4.2v1.4h21.4c0.4-1.3,1.2-5.3,1.5-7L59.6,154.6
	L59.6,154.6z M90.3,161c-1.1-0.4-2.1-1.1-2.8-2c-1.3-1.4-2.4-2.9-3.4-4.6c-1.3-1.9-2.9-4.8-3.6-6.1c3-1.2,5.4-3.3,5.4-7.1
	c0.1-2.3-1-4.4-2.9-5.7c-1.7-1.1-3.9-1.5-7.4-1.5H64.2v1.4c3.2,0.3,3.6,0.6,3.6,4.1v16.8c0,3.6-0.5,3.9-3.8,4.2v1.4h12.3v-1.4
	c-3.3-0.3-3.7-0.7-3.7-4.2v-6.5h1c1.3-0.2,2.6,0.6,3.1,1.8c1.2,2.2,2.6,4.6,3.8,6.5c1.8,2.8,3.5,3.9,8.2,4.1c0.5,0,1,0,1.3,0
	L90.3,161L90.3,161z M72.7,148.2v-10.5c0-1,0.1-1.5,0.4-1.7c0.6-0.3,1.3-0.5,2.1-0.4c2.8,0,5.5,1.7,5.5,6.3c0.1,2-0.6,3.9-2.1,5.2
	c-1.3,0.9-2.8,1.3-4.4,1.2L72.7,148.2z M120.5,148.7h-12.1v1.4c4.4,0.4,4.6,0.7,4.6,3.7v3.9c0.1,1-0.3,2-1.1,2.5
	c-0.9,0.4-1.9,0.6-2.9,0.6c-7.5,0-10.8-7-10.8-13.3c0-7.8,4.6-12.5,10.2-12.5c4,0,7.2,1.8,8.3,6.7l1.5-0.2c-0.3-3.2-0.6-5.5-0.7-7
	c-2.7-0.7-5.5-1.1-8.3-1.2c-8.8,0-16.8,5-16.8,14.9c0,8.5,6.3,14.3,16.1,14.3c3.3-0.1,6.6-0.7,9.7-1.6c-0.2-1.3-0.3-2.7-0.3-4v-3.5
	c0-2.7,0.2-2.9,2.5-3.3L120.5,148.7L120.5,148.7z M145.1,154.6c-0.5,1.5-1.3,2.9-2.3,4.1c-1,1.1-2.4,1.4-5,1.4c-1.4,0.1-2.7,0-4-0.5
	c-0.8-0.5-1-1.5-1-3.5v-7.6h3.2c3.7,0,4.1,0.2,4.7,3.3h1.5v-8.5h-1.5c-0.6,3-1,3.2-4.7,3.2h-3.3v-9.3c0-1.4,0.1-1.4,1.6-1.4h2.5
	c2.7,0,3.8,0.3,4.5,1.1c0.8,1.1,1.3,2.4,1.6,3.7l1.5-0.2c-0.2-2.5-0.4-5.5-0.4-6.4h-19.8v1.4c3.1,0.3,3.5,0.4,3.5,4.2v16.7
	c0,3.6-0.4,3.9-4.1,4.2v1.4H145c0.4-1.3,1.2-5.3,1.5-7L145.1,154.6L145.1,154.6z M166.4,140.5c-0.4-2.7-0.6-4.5-0.8-6.1
	c-1.9-0.7-3.8-1-5.8-1.1c-5.9,0-9.4,3.6-9.4,8.1s3.5,6.6,7.3,8.6c3.2,1.7,5.3,3.3,5.3,6s-1.8,4.8-4.6,4.8c-4.2,0-6.5-4.6-7.3-7.3
	l-1.5,0.4c0.2,2.4,0.7,4.7,1.2,7c0.8,0.4,1.6,0.7,2.4,0.9c1.4,0.4,2.8,0.7,4.2,0.6c6.1,0,10.1-3.7,10.1-8.5c0-4.5-3.4-6.7-7.5-8.8
	c-3.6-1.8-5.4-3.2-5.4-5.9c-0.1-2.3,1.7-4.3,4-4.4c0.1,0,0.2,0,0.3,0c3.6,0,5,3.1,5.9,5.8L166.4,140.5L166.4,140.5z M192.1,154.6
	c-0.5,1.5-1.3,2.9-2.3,4.1c-1,1.1-2.4,1.4-5,1.4c-1.4,0.1-2.7,0-4-0.5c-0.8-0.5-1-1.5-1-3.5v-7.6h3.2c3.7,0,4.1,0.2,4.7,3.3h1.5
	v-8.5h-1.4c-0.6,3-1,3.2-4.7,3.2h-3.3v-9.3c0-1.4,0.1-1.4,1.6-1.4h2.5c2.7,0,3.8,0.3,4.5,1.1c0.8,1.1,1.3,2.4,1.6,3.7l1.5-0.2
	c-0.2-2.5-0.4-5.5-0.4-6.4h-19.8v1.4c3.1,0.3,3.5,0.4,3.5,4.2v16.7c0,3.6-0.4,3.9-4.1,4.2v1.4H192c0.4-1.3,1.2-5.3,1.5-7
	L192.1,154.6L192.1,154.6z M226,134h-10.4v1.4c3.1,0.2,4,0.9,4.2,2.7c0.1,1.2,0.3,3.3,0.3,7.1v8.6H220L203.1,134h-7.4v1.4
	c1.9,0.2,2.8,0.5,3.7,1.6s0.9,1.6,0.9,4.5v9.1c0,2.4-0.1,4.8-0.4,7.2c-0.2,1.9-1.2,2.6-3.6,2.7v1.4h10.4v-1.4
	c-3.1-0.2-3.9-0.9-4.1-2.9c-0.2-2.3-0.3-4.7-0.3-7v-10.1h0.1l18,21.8h1.8v-17.1c0-2.4,0.1-4.8,0.3-7.2c0.2-1.9,1.2-2.5,3.5-2.7V134
	L226,134z M246.1,140.5c-0.3-2.7-0.6-4.5-0.8-6.1c-1.9-0.7-3.8-1-5.8-1.1c-5.9,0-9.4,3.6-9.4,8.1s3.5,6.6,7.3,8.6
	c3.2,1.7,5.3,3.3,5.3,6s-1.8,4.8-4.6,4.8c-4.2,0-6.5-4.6-7.3-7.3l-1.5,0.4c0.3,2.4,0.7,4.7,1.2,7c0.8,0.4,1.6,0.7,2.4,0.9
	c1.4,0.4,2.8,0.6,4.2,0.6c6.1,0,10.1-3.7,10.1-8.5c0-4.5-3.4-6.7-7.5-8.8c-3.6-1.8-5.4-3.2-5.4-5.9c-0.1-2.3,1.7-4.3,4-4.4
	c0.1,0,0.2,0,0.3,0c3.6,0,5,3.1,5.9,5.8L246.1,140.5L246.1,140.5z M275.3,141c-0.2-2.7-0.4-6.2-0.4-8.1h-1c-0.6,0.8-1.5,1.2-2.4,1.1
	h-17.1c-1.2,0-1.8-0.1-2.4-1.1h-1c-0.1,2.2-0.3,5.3-0.5,8.2h1.4c0.2-1.5,0.8-2.9,1.6-4.2c0.6-0.8,1.4-1.2,4.9-1.2h1.9v20.5
	c0,3.6-0.4,3.9-4.1,4.2v1.4h13.4v-1.4c-3.9-0.3-4.3-0.6-4.3-4.2v-20.6h2.3c2.8,0,3.7,0.2,4.5,1.1c0.9,1.3,1.4,2.7,1.7,4.2L275.3,141
	L275.3,141z M291.2,161.9v-1.4c-3.3-0.3-3.6-0.6-3.6-4.2v-16.7c0-3.6,0.3-3.9,3.6-4.2V134h-12.4v1.4c3.3,0.3,3.7,0.6,3.7,4.2v16.7
	c0,3.6-0.4,3.9-3.7,4.2v1.4L291.2,161.9z M315.7,140.5c-0.2-2.4-0.4-5.4-0.5-6.5h-19.8v1.4c3.2,0.3,3.6,0.5,3.6,4.3V156
	c0,3.9-0.4,4.2-3.6,4.5v1.4h12.8v-1.4c-3.8-0.3-4.2-0.6-4.2-4.5v-7.2h3.9c3.8,0,4.2,0.4,4.7,3.4h1.4v-8.4h-1.4
	c-0.5,2.7-0.9,3.1-4.7,3.1H304v-9.7c0-1.4,0.2-1.4,1.6-1.4h2.5c2.7,0,3.8,0.3,4.6,1.3c0.8,1.1,1.3,2.3,1.5,3.6L315.7,140.5
	L315.7,140.5z M344,141c-0.2-2.7-0.4-6.2-0.4-8.1h-1c-0.5,0.7-1.4,1.1-2.4,1.1H323c-1.2,0-1.8-0.1-2.4-1.1h-1
	c-0.1,2.2-0.3,5.3-0.5,8.2h1.5c0.2-1.5,0.8-2.9,1.6-4.2c0.6-0.8,1.4-1.2,4.9-1.2h1.9v20.5c0,3.6-0.4,3.9-4.1,4.2v1.4h13.4v-1.4
	c-3.9-0.3-4.3-0.6-4.3-4.2v-20.6h2.3c2.8,0,3.7,0.2,4.5,1.1c0.9,1.3,1.4,2.7,1.7,4.2L344,141L344,141z M368.6,154.6
	c-0.5,1.5-1.3,2.9-2.3,4.1c-1,1.1-2.4,1.4-5,1.4c-1.4,0.1-2.7,0-4-0.5c-0.8-0.5-1-1.5-1-3.5v-7.6h3.3c3.7,0,4.1,0.2,4.7,3.3h1.5
	v-8.5h-1.5c-0.6,3-1,3.2-4.7,3.2h-3.3v-9.3c0-1.4,0.1-1.4,1.6-1.4h2.5c2.7,0,3.8,0.3,4.5,1.1c0.8,1.1,1.3,2.4,1.6,3.7l1.5-0.2
	c-0.2-2.5-0.4-5.5-0.4-6.4h-19.9v1.4c3.1,0.3,3.5,0.4,3.5,4.2v16.7c0,3.6-0.4,3.9-4.1,4.2v1.4h21.4c0.4-1.3,1.2-5.3,1.5-7
	L368.6,154.6L368.6,154.6z M393.2,154.5c-0.5,1.6-1.3,3-2.3,4.3c-1,1.2-2.5,1.4-4.5,1.4c-1.2,0.1-2.4-0.1-3.5-0.4
	c-0.9-0.4-1-1.2-1-3.3v-16.9c0-3.6,0.4-3.9,3.7-4.2V134H373v1.4c3.3,0.3,3.7,0.5,3.7,4.2v16.7c0,3.6-0.4,3.9-4.1,4.2v1.4H393
	c0.4-1.2,1.2-5.4,1.6-7.1L393.2,154.5L393.2,154.5z M414.2,140.5c-0.3-2.7-0.6-4.5-0.8-6.1c-1.9-0.7-3.8-1-5.8-1.1
	c-5.9,0-9.4,3.6-9.4,8.1s3.5,6.6,7.3,8.6c3.2,1.7,5.3,3.3,5.3,6s-1.8,4.8-4.6,4.8c-4.2,0-6.5-4.6-7.3-7.3l-1.5,0.4
	c0.3,2.4,0.7,4.7,1.2,7c0.8,0.4,1.6,0.7,2.5,0.9c1.4,0.4,2.8,0.6,4.2,0.6c6.1,0,10.1-3.7,10.1-8.5c0-4.5-3.4-6.7-7.5-8.8
	c-3.6-1.8-5.4-3.2-5.4-5.9c-0.1-2.3,1.7-4.3,4-4.4c0.1,0,0.2,0,0.3,0c3.6,0,5,3.1,5.9,5.8L414.2,140.5L414.2,140.5z M439.9,154.6
	c-0.5,1.5-1.3,2.9-2.3,4.1c-1,1.1-2.4,1.4-5,1.4c-1.4,0.1-2.7,0-4-0.5c-0.8-0.5-1-1.5-1-3.5v-7.6h3.3c3.7,0,4.1,0.2,4.7,3.3h1.5
	v-8.5h-1.5c-0.5,3-1,3.2-4.7,3.2h-3.3v-9.3c0-1.4,0.1-1.4,1.6-1.4h2.5c2.7,0,3.8,0.3,4.5,1.1c0.8,1.1,1.3,2.4,1.6,3.7l1.5-0.2
	c-0.2-2.5-0.4-5.5-0.4-6.4H419v1.4c3.1,0.3,3.5,0.4,3.5,4.2v16.7c0,3.6-0.4,3.9-4.1,4.2v1.4h21.4c0.4-1.3,1.2-5.3,1.5-7L439.9,154.6
	L439.9,154.6z M473.7,134h-10.3v1.4c3.1,0.2,4,0.9,4.2,2.7c0.1,1.2,0.3,3.3,0.3,7.1v8.6h-0.1L450.9,134h-7.4v1.4
	c1.9,0.2,2.8,0.5,3.7,1.6s0.9,1.6,0.9,4.5v9.1c0,2.4-0.1,4.8-0.3,7.2c-0.2,1.9-1.2,2.6-3.6,2.7v1.4h10.4v-1.4
	c-3.1-0.2-3.9-0.9-4.1-2.9c-0.2-2.3-0.3-4.7-0.3-7v-10.1h0.1l18,21.8h1.8v-17.1c0-2.4,0.1-4.8,0.4-7.2c0.2-1.9,1.1-2.5,3.5-2.7
	L473.7,134L473.7,134z"/>
<path class="st0" d="M260.5,63.5L260.5,63.5c2.1-1.6,3.8-3.6,5-6c1.2-2.5,1.8-5.2,1.8-8c0-2.5-0.4-5-1.3-7.3c-0.8-2-2-3.8-3.6-5.2
	c-1.8-1.8-4-3.2-6.4-4c-3-0.9-6.2-1.3-9.4-1.2h-4.3v-4.6c1.4-0.8,2.6-1.9,3.5-3.3s1.3-3.1,1.3-4.7c0-5.1-4.1-9.2-9.2-9.2
	c-5.1,0-9.2,4.1-9.2,9.2l0,0c0,1.6,0.4,3.1,1.2,4.5c0.7,1.3,1.8,2.4,3.1,3.2v4.9h-4.5v8.5h4.4c0,0,0,11,0,23s0,29.3,0,29.3
	s-7.7-0.1-11.4-2c-2.6-1-4.8-3-6-5.6l1.3-0.7l1.3-0.7l-7-5.1l-7-5.1l0.3,8.6l0.3,8.6l1.4-0.8l1.5-0.8c0.6,1.3,1.3,2.5,2.2,3.6
	s1.9,2.1,2.9,3.1c3.2,2.5,6.8,4.2,10.8,5c5.4,1.2,10.8,1.7,16.3,1.6h6c4.5,0.1,9.1-0.5,13.5-1.6c3.3-0.9,6.4-2.6,8.9-5
	c1.7-1.8,3.1-3.9,4-6.2c1-2.6,1.6-5.4,1.5-8.2c0.1-4.5-1.4-8.9-4.4-12.3C267.1,66.4,264,64.5,260.5,63.5L260.5,63.5z M238,22.7
	c-2,0-3.6-1.6-3.6-3.6c0-1,0.4-1.9,1.1-2.5c1.4-1.4,3.7-1.4,5,0c1.4,1.4,1.4,3.7,0,5C239.8,22.3,238.9,22.7,238,22.7z M242.5,40.1
	c0.3-0.1,5.2,0,5.6,0c3.2,0,5.9,0.7,7.8,2.3s2.9,4,2.9,7.5c0,2.7-1,5.2-2.8,7.1c-2.1,2-4.9,3-7.8,2.9h-5.8v-9.6L242.5,40.1
	L242.5,40.1z M248.8,93.9c-1.4,0,0,0-6.4,0v-13V68.2h6.3c4.1,0,7.9,1,10.7,3s4.5,5.3,4.5,9.8c0,4.8-1.8,8-4.6,10.1
	S252.7,93.9,248.8,93.9L248.8,93.9z"/>
</svg>
