<?xml version="1.0" encoding="utf-8"?>
<!-- Generator: Adobe Illustrator 24.0.1, SVG Export Plug-In . SVG Version: 6.00 Build 0)  -->
<svg version="1.1" id="Layer_1" xmlns="http://www.w3.org/2000/svg" xmlns:xlink="http://www.w3.org/1999/xlink" x="0px" y="0px"
	 viewBox="0 0 841.9 595.3" style="enable-background:new 0 0 841.9 595.3;" xml:space="preserve">
<style type="text/css">
	.st0{fill:#FFFFFF;}
</style>
<g>
	<g>
		<rect x="65.2" y="491.8" class="st0" width="327.6" height="55"/>
		<path class="st0" d="M324.7,310.4c-0.1,0.1-0.2,0.2-0.3,0.3c-37.5,35.7-96.9,34.2-132.6-3.3c-35.7-37.5-34.2-96.9,3.3-132.6
			c37.5-35.7,96.9-34.2,132.6,3.3c0.2,0.2,0.4,0.4,0.6,0.6l71.9-68.4c-36.3-38.3-88.1-61.6-145-60.3
			C148.3,52.6,63.7,141.3,66.3,248.2C68.9,355,157.6,439.6,264.4,437c50.3-1.2,95.7-21.5,129.4-53.9L324.7,310.4z"/>
	</g>
	<g>
		<path class="st0" d="M470.3,274.9c-4.5,4.4-10.6,7-18.4,7c-11.5,0-18.8-5.3-23.4-12c-3.4-5.1-5.3-12-5.3-21.6
			c0-9.6,1.9-16.5,5.3-21.6c4.5-6.7,11.7-12,23.2-12c7.6,0,13.8,2.5,18.2,6.8c4.3,4.2,7.1,9.5,7.6,16.4h-10.9
			c-0.5-4.4-2.1-7.6-4.5-10c-2.5-2.4-6.2-3.9-10.4-3.9c-4.9,0-8.3,1.8-11.1,4.2c-5.1,4.3-6.4,12.3-6.4,20.1c0,7.8,1.4,15.8,6.4,20.1
			c2.8,2.4,6.2,4.2,11.1,4.2c4.4,0,8.3-1.6,10.9-4.3c2.3-2.4,3.8-5.3,4.3-9.5h10.9C477.2,265.5,474.6,270.7,470.3,274.9z"/>
		<path class="st0" d="M541.8,281.1c-5.7,0-9.2-4.3-9.2-9.7h-0.3c-3.7,6.4-11.6,10.5-20.6,10.5c-14.7,0-22-9.9-22-19.7
			c0-8.2,5.3-19,22.7-20l19.5-1.1v-4.7c0-3.2-0.4-7.1-3.3-9.7c-2.2-2-5.3-3.3-10.5-3.3c-5.8,0-9.5,1.6-11.6,3.8
			c-2,2-3.2,4.5-3.2,7.7h-10.5c0.1-5.8,2.3-10,5.6-13.4c4.3-4.5,11.9-6.8,19.7-6.8c12.4,0,19.5,5.3,22.5,12.3
			c1.3,2.9,1.9,6.2,1.9,9.9v30.9c0,3.4,1.4,4.3,3.5,4.3c1.1,0,2.8-0.4,2.8-0.4v8C546.6,280.7,544.4,281.1,541.8,281.1z M531.9,249.4
			l-17.2,1c-6.4,0.4-14,3.4-14,11.5c0,5.7,3.5,11,12.6,11c4.9,0,9.7-1.6,13.1-5.2c3.8-3.9,5.4-9.2,5.4-14.5V249.4z"/>
		<path class="st0" d="M604.3,280.2v-40.5c0-9.6-3.9-15.3-14-15.3c-6.2,0-11.1,4-13.9,9.8c-2.1,4.7-2.3,11.4-2.3,16.3v29.7h-10.7
			v-63.9h9.3l0.9,9.6c3.3-7.3,12.1-11.2,19.3-11.2c14.5,0,22.1,8.7,22.1,23.5v42.1H604.3z"/>
		<path class="st0" d="M628.9,201.6V189h12.5v12.6H628.9z M629.7,280.2v-63.9h11v63.9H629.7z"/>
		<path class="st0" d="M701.3,274.9c-4.6,4.4-10.6,7-18.4,7c-11.5,0-18.8-5.3-23.4-12c-3.4-5.1-5.3-12-5.3-21.6
			c0-9.6,1.9-16.5,5.3-21.6c4.5-6.7,11.7-12,23.2-12c7.6,0,13.8,2.5,18.2,6.8c4.3,4.2,7.1,9.5,7.6,16.4h-10.9
			c-0.5-4.4-2.1-7.6-4.5-10c-2.5-2.4-6.2-3.9-10.4-3.9c-4.9,0-8.3,1.8-11.1,4.2c-5.1,4.3-6.4,12.3-6.4,20.1c0,7.8,1.4,15.8,6.4,20.1
			c2.8,2.4,6.2,4.2,11.1,4.2c4.4,0,8.3-1.6,10.9-4.3c2.3-2.4,3.8-5.3,4.3-9.5h10.9C708.2,265.5,705.6,270.7,701.3,274.9z"/>
		<path class="st0" d="M770.2,281.1c-5.7,0-9.2-4.3-9.2-9.7h-0.3c-3.7,6.4-11.6,10.5-20.6,10.5c-14.7,0-22-9.9-22-19.7
			c0-8.2,5.3-19,22.7-20l19.4-1.1v-4.7c0-3.2-0.4-7.1-3.3-9.7c-2.1-2-5.3-3.3-10.5-3.3c-5.8,0-9.5,1.6-11.6,3.8
			c-2,2-3.2,4.5-3.2,7.7h-10.5c0.1-5.8,2.3-10,5.6-13.4c4.3-4.5,11.9-6.8,19.7-6.8c12.4,0,19.5,5.3,22.5,12.3
			c1.3,2.9,1.9,6.2,1.9,9.9v30.9c0,3.4,1.4,4.3,3.5,4.3c1.1,0,2.8-0.4,2.8-0.4v8C775.1,280.7,772.9,281.1,770.2,281.1z M760.4,249.4
			l-17.2,1c-6.4,0.4-14,3.4-14,11.5c0,5.7,3.5,11,12.6,11c4.9,0,9.7-1.6,13.1-5.2c3.8-3.9,5.4-9.2,5.4-14.5V249.4z"/>
	</g>
</g>
</svg>
