<?xml version="1.0" encoding="utf-8"?>
<!-- Generator: Adobe Illustrator 24.0.1, SVG Export Plug-In . SVG Version: 6.00 Build 0)  -->
<svg version="1.1" id="レイヤー_1" xmlns="http://www.w3.org/2000/svg" xmlns:xlink="http://www.w3.org/1999/xlink" x="0px"
	 y="0px" viewBox="0 0 988.9 259.8" style="enable-background:new 0 0 988.9 259.8;" xml:space="preserve">
<style type="text/css">
	.st0{fill:#FFFFFF;}
</style>
<g>
	<g>
		<g>
			<g>
				<path class="st0" d="M322.5,77.5c0-3.3,1.2-6.1,3.6-8.5c2.4-2.4,5.3-3.6,8.6-3.6c3.4,0,6.3,1.2,8.7,3.6c2.4,2.3,3.6,5.2,3.6,8.6
					s-1.2,6.3-3.6,8.7c-2.3,2.4-5.2,3.6-8.6,3.6c-3.4,0-6.3-1.2-8.7-3.6C323.7,83.9,322.5,80.9,322.5,77.5z M344.1,110.7V192h-18.8
					v-81.3H344.1z"/>
				<path class="st0" d="M538.2,155.8h-58.3c0.5,6.7,2.7,12,6.5,15.9c3.8,3.9,8.8,5.8,14.8,5.8c4.7,0,8.5-1.1,11.6-3.3
					c3-2.2,6.4-6.3,10.3-12.4l15.9,8.8c-2.4,4.2-5,7.7-7.8,10.7c-2.7,3-5.6,5.4-8.8,7.3c-3.1,1.9-6.5,3.3-10.1,4.2
					c-3.6,0.9-7.5,1.3-11.8,1.3c-12.1,0-21.9-3.9-29.2-11.7c-7.3-7.8-11-18.3-11-31.2c0-12.9,3.6-23.3,10.7-31.2
					c7.2-7.8,16.7-11.8,28.5-11.8c12,0,21.4,3.8,28.4,11.4c6.9,7.6,10.3,18.1,10.3,31.5L538.2,155.8z M518.9,140.5
					c-2.6-10-8.9-15-18.9-15c-2.3,0-4.4,0.3-6.4,1c-2,0.7-3.8,1.7-5.5,3c-1.6,1.3-3,2.9-4.2,4.7c-1.2,1.8-2.1,3.9-2.7,6.3H518.9z"/>
				<path class="st0" d="M557.2,110.7H576v7.5c3.6-3.8,6.7-6.3,9.3-7.7c2.7-1.4,6.1-2.1,10.3-2.1c9.2,0,16.4,4,21.8,12
					c5.9-8,13.9-12,24-12c18.3,0,27.5,11.1,27.5,33.3V192h-18.9v-45.2c0-7.8-0.9-13.3-2.8-16.5c-1.9-3.3-5.1-4.9-9.6-4.9
					c-5.2,0-8.9,1.9-11.3,5.8c-2.4,3.9-3.5,10.2-3.5,18.8v42h-18.9v-44.9c0-14.5-4.2-21.7-12.5-21.7c-5.3,0-9.1,2-11.6,5.9
					c-2.4,4-3.6,10.2-3.6,18.7v42h-18.8V110.7z"/>
				<path class="st0" d="M686.7,77.5c0-3.3,1.2-6.1,3.6-8.5c2.4-2.4,5.3-3.6,8.6-3.6c3.4,0,6.3,1.2,8.7,3.6c2.4,2.3,3.6,5.2,3.6,8.6
					s-1.2,6.3-3.6,8.7c-2.3,2.4-5.2,3.6-8.6,3.6c-3.4,0-6.3-1.2-8.7-3.6C687.9,83.9,686.7,80.9,686.7,77.5z M708.4,110.7V192h-18.8
					v-81.3H708.4z"/>
				<path class="st0" d="M755.4,128.3v63.8h-18.8v-63.8h-8.1v-17.5h8.1V81h18.8v29.8h14.8v17.5H755.4z"/>
				<path class="st0" d="M830.6,124.6l-15.5,8.3c-2.4-5-5.5-7.5-9.1-7.5c-1.7,0-3.2,0.6-4.4,1.7c-1.2,1.1-1.8,2.6-1.8,4.4
					c0,3.1,3.6,6.2,10.9,9.3c10,4.3,16.7,8.2,20.1,11.9c3.4,3.6,5.2,8.5,5.2,14.6c0,7.8-2.9,14.4-8.7,19.7c-5.6,5-12.4,7.5-20.4,7.5
					c-13.6,0-23.3-6.6-29-20l16-7.4c2.2,3.9,3.9,6.4,5.1,7.4c2.3,2.1,5,3.2,8.2,3.2c6.3,0,9.5-2.9,9.5-8.7c0-3.3-2.4-6.5-7.3-9.3
					c-1.9-0.9-3.8-1.9-5.7-2.8c-1.9-0.9-3.8-1.8-5.8-2.8c-5.5-2.7-9.3-5.3-11.5-8c-2.8-3.4-4.3-7.8-4.3-13.1
					c0-7.1,2.4-12.9,7.3-17.5c5-4.6,11-6.9,18-6.9C817.8,108.5,825.6,113.9,830.6,124.6z"/>
				<path class="st0" d="M869,110.7v46.7c0,13.5,5.3,20.2,15.9,20.2c10.6,0,15.9-6.7,15.9-20.2v-46.7h18.8v47.1
					c0,6.5-0.8,12.1-2.4,16.9c-1.6,4.2-4.3,8-8.1,11.4c-6.3,5.5-14.4,8.3-24.2,8.3c-9.7,0-17.8-2.8-24.1-8.3
					c-3.9-3.4-6.7-7.2-8.3-11.4c-1.6-3.8-2.3-9.4-2.3-16.9v-47.1H869z"/>
				<path class="st0" d="M424.5,68.6h18.9V192h-18.9v-8.5c-7.4,7.2-15.8,10.9-25.1,10.9c-11.1,0-20.4-4.1-27.7-12.2
					c-7.3-8.3-10.9-18.6-10.9-31.1c0-12.1,3.6-22.3,10.9-30.4c7.2-8.2,16.3-12.3,27.3-12.3c9.5,0,18,3.9,25.6,11.7V68.6z M380,151.1
					c0,7.8,2.1,14.1,6.3,19c4.3,5,9.7,7.4,16.2,7.4c7,0,12.6-2.4,16.9-7.2c4.3-5,6.4-11.2,6.4-18.9s-2.1-13.9-6.4-18.9
					c-4.3-4.8-9.9-7.3-16.7-7.3c-6.5,0-11.9,2.4-16.2,7.3C382.1,137.7,380,143.8,380,151.1z"/>
			</g>
		</g>
		<g>
			<path class="st0" d="M167.9,43.8c-35.6-3.6-50,11.6-61.3,33.9c-3.4,6.7-6.5,15.4-10.5,23.1c-5.4,10.5-10.8,16.5-18.6,23.8
				c-2.3,2.1-6,5.8-7,7c-1,1.1-1.4,2.2-1.2,3.4c0.3,1.9,3.7,5.1,8.8,8c3.2,1.8,2.8,3.8,2,6.8c-1.3,5.2,3.3,6.9,6.1,9
				c0.4,0.3,0.5,0.9,0.2,1.3c-2.6,3.4-4,5.9,0.4,10.6c3.3,3.5,5.5,5.9,5.5,16.2c0,4.9,2.3,12.7,12.4,11.9
				c10.3-0.8,15.4-2.3,23.7-3.1c27.1-2.9,48.4,3.9,64.9,20.8l42.4-63.8c-16.1-3.3-34.3-6.3-56.7-0.8l0,0l-3.8-12.2l0.8-0.2
				c27.3-6.6,49.2-2,66.8,1.7c0.1,0,0.3,0.1,0.4,0.1l14.1-21.2c-8.4-0.7-16.4-2.1-24.2-3.5c-20-3.5-39-6.7-63.9,1l-0.8,0.3
				l-3.8-12.2l0.9-0.3c27.8-8.6,49.2-4.9,69.8-1.3c8.1,1.4,16.5,2.8,25.2,3.5c1.7,0.1,3.4,0.2,5,0.3l12-18
				c-15.6-0.3-30.5-2.8-45-5.3c-25.8-4.3-50.1-8.5-75.9,0.2l-0.2,0.1l-3.8-12.2c6.9-2.3,13.9-3.9,21.3-4.8
				c6.6-0.8,13.4-1.1,20.7-0.8c13.5,0.5,26.9,2.8,39.9,5c10,1.7,20.3,3.4,30.7,4.4c7.4,0.7,14.2,0.9,20.7,0.6l22-33.1
				C265,55.5,201.9,47.3,167.9,43.8z M114.7,125.3l-2.4-3.5l1.8-1.3l-5.7-14.4l-4.6-0.4l0.3-4.2l34,2.7l1,3.8L114.7,125.3z"/>
			<polygon class="st0" points="117.4,118.3 132,108.1 112.7,106.5 			"/>
		</g>
	</g>
</g>
</svg>
