<?xml version="1.0" encoding="utf-8"?>
<!-- Generator: Adobe Illustrator 22.1.0, SVG Export Plug-In . SVG Version: 6.00 Build 0)  -->
<svg version="1.1" id="Layer_1" xmlns="http://www.w3.org/2000/svg" xmlns:xlink="http://www.w3.org/1999/xlink" x="0px" y="0px"
	 viewBox="0 0 73.5 61.5" style="enable-background:new 0 0 73.5 61.5;" xml:space="preserve">
<style type="text/css">
	.st0{fill:#FFFFFF;}
</style>
<title>Artboard 1</title>
<path class="st0" d="M5.8,33.6l-0.2,2c-0.6-0.1-1.1,0.4-1.2,1l0,0c-0.1,0.4,0.1,0.7,0.5,0.8H5c0.5,0.1,0.8-0.3,1.3-1.5
	c0.6-1.7,1.5-2.3,2.8-2.2c1.6,0.2,2.2,1.8,2,3.3c-0.2,2-1.2,3.2-3,3.2l0.2-2c0.7,0,1.2-0.6,1.2-1.2c0.1-0.5-0.1-1-0.5-1
	s-0.8,0.2-1.2,1.2c-0.7,1.7-1.3,2.7-2.9,2.5s-2.2-1.7-2-3.2c0-1.5,1.2-2.8,2.7-2.8C5.7,33.6,5.8,33.6,5.8,33.6z"/>
<path class="st0" d="M8.4,26c1.2,0.3,2,1.6,1.7,2.9c-0.1,0.4-0.2,0.8-0.3,1.2L9.4,31l2.6,0.9l-0.7,2l-7.5-2.6l0.9-2.8
	c0.1-0.4,0.3-0.8,0.4-1.2C5.8,26.1,7.2,25.5,8.4,26z M7.7,28c-0.4-0.2-0.9,0-1.1,0.4v0.1c-0.1,0.1-0.1,0.3-0.2,0.5l-0.3,0.8l1.8,0.6
	l0.2-0.8c0.1-0.2,0.1-0.4,0.2-0.5C8.5,28.6,8.2,28.2,7.7,28C7.7,28.1,7.7,28.1,7.7,28L7.7,28z"/>
<path class="st0" d="M12.4,25.7l1.5,1.6l-1.1,1.9l-5.5-6.4l1.2-2.2l8.3,1.4l-1.1,2l-2.1-0.4L12.4,25.7z M11.2,24.5l0.7-1.3l-2.5-0.5
	L11.2,24.5z"/>
<path class="st0" d="M21.7,17l-1.5,1.6c-0.5-0.2-1-0.5-1.4-0.8c-0.7-0.5-1.3-0.6-1.7-0.3c-0.2,0.2-0.3,0.3-0.5,0.5l-0.3,0.3l2.2,2
	l-1.4,1.5l-5.8-5.4l2.1-2.3c0.3-0.3,0.6-0.6,0.9-0.9c0.8-0.9,2.1-0.9,2.9-0.2c0,0,0.1,0,0.1,0.1c0.7,0.6,0.9,1.7,0.4,2.5
	c0.7-0.4,1.6-0.2,2.2,0.4C20.4,16.5,21,16.8,21.7,17z M15.7,16.8c0.1-0.1,0.3-0.3,0.4-0.4c0.3-0.4,0.5-0.9,0-1.4s-0.9-0.3-1.3,0.1
	c-0.1,0.1-0.3,0.3-0.4,0.4l-0.6,0.6l1.3,1.2L15.7,16.8z"/>
<path class="st0" d="M27.3,13.3l-5,3.4L17.9,10l5-3.3L23.8,8l-3.2,2.2l0.9,1.3l3-2l0.9,1.3l-3,2l0.9,1.3l3.3-2.2L27.3,13.3z"/>
<path class="st0" d="M33.4,8.4c0.4,1.2-0.1,2.5-1.3,3c-0.3,0.2-0.7,0.3-1.1,0.5L28.1,13l-2.8-7.4l3-1.2c0.3-0.1,0.7-0.2,1-0.3
	c1-0.4,2.2,0.1,2.6,1.2C32.2,6,32,6.7,31.4,7.2C32.3,7,33.2,7.5,33.4,8.4z M28.3,7.7l0.9-0.3c0.2-0.1,0.3-0.1,0.5-0.2
	C30,7.1,30.2,6.7,30,6.3l0,0c-0.1-0.3-0.4-0.6-0.8-0.5l0,0c-0.2,0-0.3,0.1-0.5,0.2l-0.9,0.3L28.3,7.7z M31.3,9.1
	c-0.1-0.4-0.6-0.6-1-0.5c-0.2,0-0.3,0.1-0.5,0.2l-1,0.4l0.6,1.6l1-0.4l0.5-0.2C31.3,10,31.6,9.5,31.3,9.1
	C31.4,9.1,31.4,9.1,31.3,9.1L31.3,9.1z"/>
<path class="st0" d="M36.7,8.4l-0.5,2.1L34,10.6l2.4-8l2.5-0.2l3.3,7.7L40,10.2l-0.8-2L36.7,8.4z M37.1,6.8l1.5-0.1l-0.9-2.4
	L37.1,6.8z"/>
<path class="st0" d="M47.3,11.6L46,5.8c-0.2,0.8-0.3,1.5-0.5,1.9l-0.9,3.1l-2-0.6l2.2-7.6l2.5,0.7l1.4,6.1c0.2-0.8,0.4-1.6,0.5-2
	l0.9-3.2l2,0.6l-2.2,7.6L47.3,11.6z"/>
<path class="st0" d="M56.5,17l-2.1-1.5l-0.1-3.8l-0.8,0.2l-1.4,2l-1.7-1.2l4.5-6.5l1.7,1.2l-2,2.9L59,9.1l2,1.4l-4.9,1.1L56.5,17z"
	/>
<path class="st0" d="M64.2,17.9l-1.3-1.6c0.5-0.4,0.5-1.1,0.1-1.5l0,0c-0.2-0.3-0.6-0.4-0.9-0.2L62,14.7c-0.4,0.3-0.4,0.8,0.2,2
	c0.8,1.6,0.6,2.7-0.3,3.5c-1.2,1-2.8,0.4-3.8-0.9c-1.3-1.5-1.5-3.1-0.3-4.3l1.3,1.6c-0.4,0.5-0.4,1.3,0.1,1.7
	c0.4,0.4,0.9,0.6,1.2,0.3s0.4-0.7,0-1.6c-0.8-1.7-1.1-2.8,0.2-3.9s2.7-0.4,3.8,0.8c1.1,1.1,1.2,2.8,0.1,3.9
	C64.3,17.8,64.2,17.9,64.2,17.9z"/>
<path class="st0" d="M67.1,21.7l-5.6,2.9l-0.9-1.8l5.6-2.9L65,17.5l1.4-0.7l3.3,6.4L68.2,24L67.1,21.7z"/>
<path class="st0" d="M62.4,26.9l7.6-2.1l0.5,2l-7.6,2.1L62.4,26.9z"/>
<path class="st0" d="M68,32v3.5h-1.6V32h-3.1v-2h7.9v5.9h-1.6V32H68z"/>
<path class="st0" d="M68.1,41.1l-6-1.9l0.6-2l6,1.9l0.8-2.5l1.5,0.5L68.9,44l-1.5-0.5L68.1,41.1z"/>
<path class="st0" d="M58,46l3.5-5l6.5,4.5l-3.4,4.9l-1.3-0.9l2.2-3.2l-1.3-0.9l-2.1,3l-1.3-0.9l2.1-3l-1.3-0.9l-2.3,3.3L58,46z"/>
<path class="st0" d="M52.6,49.9l5-3.5l4.5,6.5L60.4,54l-3.5-5l-3.3,2.3L52.6,49.9z"/>
<path class="st0" d="M48,56.7l2-0.5c0.2,0.6,0.8,0.9,1.3,0.8c0.4,0,0.7-0.4,0.6-0.8v-0.1c-0.1-0.5-0.6-0.7-1.9-0.7
	c-1.8,0-2.7-0.6-3-1.8c-0.4-1.5,0.8-2.7,2.4-3.1c1.9-0.5,3.5-0.1,4,1.6l-2,0.5c-0.3-0.6-1-0.9-1.6-0.6c-0.5,0.2-0.9,0.5-0.8,1
	s0.5,0.7,1.5,0.7c1.8,0,3,0.2,3.4,1.8s-0.8,2.7-2.3,3.1c-1.4,0.6-3-0.2-3.6-1.6C48,56.8,48,56.8,48,56.7z"/>
<path class="st0" d="M40.4,50.3l6,1L45,59.1l-5.9-1l0.3-1.6l3.8,0.7l0.3-1.5L39.9,55l0.3-1.6l3.6,0.6l0.2-1.5l-3.9-0.7L40.4,50.3z"
	/>
<path class="st0" d="M36.1,47L35,52.9c0.5-0.7,0.9-1.2,1.2-1.6l2.1-2.5l1.6,1.3l-5,6.1l-2-1.6l1.2-6.1c-0.5,0.7-1,1.3-1.3,1.7
	l-2.1,2.6L29,51.5l5-6.1L36.1,47z"/>
<path class="st0" d="M27.7,35.4c2-0.4,3.9,1,4.3,3l0,0c0.1,0.3,0.1,0.7,0.1,1l0.3,3l-7.9,0.8l-0.3-3c0-0.3-0.1-0.7,0-1
	c-0.1-1.9,1.3-3.6,3.2-3.8C27.5,35.4,27.6,35.4,27.7,35.4z M27.9,37.6c-1.4,0.1-2.1,0.9-2.1,2c0,0.3,0,0.5,0,0.8l0.1,0.6l4.7-0.5
	l-0.1-0.6c0-0.2-0.1-0.5-0.1-0.7C30.3,38.1,29.3,37.4,27.9,37.6z"/>
<path class="st0" d="M34,31.6l-6-0.2c0.7,0.4,1.3,0.7,1.7,0.9l2.9,1.6l-1,1.8l-6.8-4l1.3-2.2l6.2,0.2c-0.7-0.4-1.4-0.8-1.8-1
	L27.6,27l1-1.8l6.8,4L34,31.6z"/>
<path class="st0" d="M40.8,24.1c0.5,1.1,0,2.5-1.1,3.1c-0.3,0.2-0.7,0.4-1,0.5L35.8,29l-3.3-7.2l3-1.4c0.3-0.2,0.6-0.3,0.9-0.4
	c1-0.5,2.2,0,2.7,1c0.3,0.7,0.1,1.4-0.5,1.9C39.6,22.8,40.5,23.3,40.8,24.1z M35.7,23.8l0.8-0.4c0.2-0.1,0.3-0.1,0.4-0.2
	c0.3-0.2,0.4-0.7,0.2-1s-0.5-0.4-0.8-0.3c-0.1,0-0.3,0.1-0.5,0.2L35,22.5L35.7,23.8z M38.8,25c-0.2-0.4-0.7-0.6-1.1-0.4l0,0
	c-0.2,0.1-0.3,0.1-0.5,0.2l-1,0.4l0.7,1.5l1-0.5l0.5-0.2C38.8,25.8,39,25.4,38.8,25z"/>
<line class="st0" x1="36.8" y1="8.4" x2="36.3" y2="10.5"/>
</svg>
