<?xml version="1.0" encoding="utf-8"?>
<!-- Generator: Adobe Illustrator 24.0.1, SVG Export Plug-In . SVG Version: 6.00 Build 0)  -->
<svg version="1.1" id="Layer_1" xmlns="http://www.w3.org/2000/svg" xmlns:xlink="http://www.w3.org/1999/xlink" x="0px" y="0px"
	 viewBox="0 0 270.7 388.9" style="enable-background:new 0 0 270.7 388.9;" xml:space="preserve">
<style type="text/css">
	.st0{fill:#FFFFFF;}
</style>
<polygon class="st0" points="254,0 250.7,2.8 257.4,10.7 230.8,33.4 234,37.2 260.7,14.5 267.4,22.4 270.7,19.6 "/>
<path class="st0" d="M137.6,189.6l3.3,34.8l-10.3,1l0.4,4.3l25.6-2.4l-0.4-4.3l-10.3,1l-3.3-34.8L137.6,189.6z M100.8,219.3l-9.9-3
	l-1.2,4.2l24.6,7.3l1.2-4.2l-9.9-3l10-33.5l-4.8-1.4L100.8,219.3z M163.9,183.2l14.9,31.6l-9.4,4.4l1.9,3.9l23.2-11l-1.9-3.9
	l-9.4,4.4l-14.9-31.6L163.9,183.2z M65.4,199.5l-8.1-6.5l-2.7,3.4l20,16.1l2.7-3.4l-8.1-6.5l21.9-27.3l-3.9-3.1L65.4,199.5z
	 M186.1,167.6l26.1,23.2l-6.9,7.7l3.3,2.9l17.1-19.2l-3.3-2.9l-6.9,7.7l-26.1-23.2L186.1,167.6z M40.4,169.2l-5.3-8.9l-3.7,2.2
	l13.3,22l3.7-2.2l-5.3-8.9l30-18l-2.6-4.3L40.4,169.2z M200.9,144.9l33,11.6l-3.4,9.8l4.1,1.4l8.5-24.3l-4.1-1.4l-3.4,9.8l-33-11.6
	L200.9,144.9z M22.2,120.5l3.7,25.4l4.3-0.6l-1.5-10.2l34.6-5l-0.7-5l-34.6,5l-1.5-10.2L22.2,120.5z M240.5,101.4l0.5,10.3
	l-34.9,1.6l0.2,5l34.9-1.6l0.5,10.3l4.3-0.2l-1.2-25.7L240.5,101.4z M23.1,103.7l4.2,1l2.5-10l34,8.4l1.2-4.9l-34-8.4l2.5-10l-4.2-1
	L23.1,103.7z M227.8,64.2l3.9,9.6l-32.3,13.3l1.9,4.6l32.3-13.3l3.9,9.6l4-1.7l-9.8-23.8L227.8,64.2z M36.2,63.3l3.5,2.6l6.1-8.4
	L74.1,78l2.9-4L48.8,53.4l6.1-8.4l-3.5-2.6L36.2,63.3z M62.5,31.8l2.4,3.6l8.6-5.8l19.5,29l4.2-2.8l-19.5-29l8.6-5.8l-2.4-3.6
	L62.5,31.8z M180.9,20.5l8.7,5.7l-19.1,29.3l4.2,2.7l19.1-29.3l8.7,5.7l2.4-3.6l-21.5-14.1L180.9,20.5z M100.2,11l0.8,4.3l10.2-2
	l6.7,34.3l4.9-1L116,12.3l10.2-2l-0.8-4.3L100.2,11z M141.5,10.2l10.2,2l-6.8,34.3l4.9,1l6.8-34.3l10.2,2l0.8-4.3l-25.2-5
	L141.5,10.2z"/>
<g>
	<path class="st0" d="M10.3,347.9H0V344h25.1v3.9H14.8v30.2h-4.5V347.9z"/>
	<path class="st0" d="M38.9,362.4c0-3.3-1.4-4.7-5.4-4.7c-3,0-4.6,1.6-4.7,4.7l-3.9-0.2c0.5-5.2,3.6-7.5,8.7-7.5
		c3.9,0,9.3,1.1,9.3,7.1v10.7c0,2.3,0.9,2.6,1.7,2.6c0.4,0,0.8-0.1,1.2-0.2v3.3c-0.8,0.2-1.6,0.3-2.4,0.3c-2.4,0-3.5-1-4-3.2
		c-2.2,2.4-4.9,3.6-8.2,3.6c-4.1,0-7.3-2.8-7.3-6.3c0-6.3,5.7-7.5,15.1-8V362.4z M38.9,367c-6.4,0.9-10.9,1.6-10.9,5.2
		c0,2.8,2.5,3.5,4.4,3.5c3.7,0,6.5-2.3,6.5-6V367z"/>
	<path class="st0" d="M50.3,344h3.9v34.2h-3.9V344z"/>
	<path class="st0" d="M64,367.5c0,4.6,2.4,8.1,6.9,8.1c3.5,0,5.6-1.7,6.4-5.1l3.9,0.5c-1.5,5.1-5.4,7.7-10.5,7.7
		c-7,0.1-11-5.3-11-11.9c0-7.4,3.5-12.2,10.9-12.2c7.2,0,10.7,5.2,10.7,12v0.9H64z M77.2,364.5c-0.5-3.7-2.6-6.8-6.9-6.8
		c-3.8,0-6,3.3-6.3,6.8H77.2z"/>
	<path class="st0" d="M87,355.2H91v3.1h0.1c1.5-2.3,3.7-3.6,6.7-3.6c4.6,0,8.1,2,8.1,8.4v15.1H102v-14.7c0-3.9-2.1-5.1-4.8-5.1
		c-3.6,0-6.1,2.4-6.1,6v13.8H87V355.2z"/>
	<path class="st0" d="M110.2,355.2h3.8v-7.2h3.9v7.2h4.3v3.4h-4.3v14.6c0,1.1,0,2.2,1.6,2.2c0.9,0,1.6-0.2,2.4-0.5v3.4
		c-1.3,0.3-2.6,0.5-3.9,0.5c-4.1,0-4.1-1.9-4.1-4.5v-15.6h-3.8V355.2z"/>
	<path class="st0" d="M141.9,344h4.6l18.1,27h0.1v-27h4.2v34.2h-4.5l-18.1-26.9h-0.1v26.9h-4.2V344z"/>
	<path class="st0" d="M186.1,354.6c7,0,11.2,5.1,11.2,12c0,7-4.2,12-11.2,12s-11.2-5.1-11.2-12C174.9,359.7,179.1,354.6,186.1,354.6
		z M186.1,375.7c5.7,0,7-5.2,7-9c0-3.8-1.3-9-7-9c-5.7,0-7,5.2-7,9C179.1,370.5,180.4,375.7,186.1,375.7z"/>
	<path class="st0" d="M203,355.2h3.9v3.9h0.1c1.9-3.1,4.1-4.2,8.1-4.2v4.3c-0.8,0-2-0.1-2.6-0.1c-3.8,0-5.6,3.5-5.6,6.1v12.9H203
		V355.2z"/>
	<path class="st0" d="M236.9,355.2h3.9v23.1c0,3.5-0.7,10.6-10.6,10.6c-5.6,0-10.3-2.4-10.7-8.4h4.2c-0.1,3.7,2.9,5.3,6.3,5.3
		c6.7,0,6.8-4.7,6.8-8v-3.3h-0.1c-2.2,2.8-4.5,4.1-7.8,4.1c-4,0-10.5-2.3-10.5-12c0-6.7,3.3-12,10.5-12c3.7,0,6.4,1.5,7.8,3.7l0.1,0
		V355.2z M222.4,366.7c0,4.8,2.5,8.7,7.1,8.7c4.6,0,7.5-4.2,7.4-8.8c-0.1-6.3-3.1-8.5-7.4-8.5C225.5,358,222.4,360.8,222.4,366.7z"
		/>
	<path class="st0" d="M250.4,367.5c0,4.6,2.4,8.1,6.9,8.1c3.5,0,5.6-1.7,6.4-5.1l3.9,0.5c-1.5,5.1-5.4,7.7-10.5,7.7
		c-7,0.1-11-5.3-11-11.9c0-7.4,3.5-12.2,10.9-12.2c7.2,0,10.7,5.2,10.7,12v0.9H250.4z M263.6,364.5c-0.5-3.7-2.6-6.8-6.9-6.8
		c-3.8,0-6,3.3-6.3,6.8H263.6z"/>
</g>
</svg>
