<?xml version="1.0" encoding="utf-8"?>
<!-- Generator: Adobe Illustrator 22.1.0, SVG Export Plug-In . SVG Version: 6.00 Build 0)  -->
<svg version="1.1" id="logo" xmlns="http://www.w3.org/2000/svg" xmlns:xlink="http://www.w3.org/1999/xlink" x="0px" y="0px"
	 viewBox="0 0 252 144" style="enable-background:new 0 0 252 144;" xml:space="preserve">
<style type="text/css">
	.st0{fill:#FFFFFF;}
</style>
<title>Artboard 1</title>
<path class="st0" d="M32.8,127.3c2.9-6.6,9.5-24,10.6-27.5c0.2-0.6,0.4-1.2,0.4-1.9c0-0.5-0.2-0.9-0.6-1.1c-0.6-0.2-1.3-0.2-1.9-0.2
	c-0.3,0-0.5,0-0.5-0.3s0.3-0.4,1.1-0.4c2,0,4.3,0.2,4.9,0.2c0.3,0,2.4-0.2,3.9-0.2c0.5,0,0.8,0.1,0.8,0.3s-0.2,0.3-0.6,0.3
	c-0.8,0-1.7,0.2-2.4,0.6s-1.4,1.3-2.7,4.7c-0.5,1.4-3,7.3-5.6,13.4c-3,7.2-5.2,12.6-6.4,15c-1.4,3-1.6,3.8-2.1,3.8s-0.8-0.7-1.8-3.1
	l-12.1-30.4c-1.1-2.8-1.8-3.3-3.6-3.8c-0.6-0.1-1.3-0.2-1.9-0.2c-0.3,0-0.4-0.2-0.4-0.3s0.5-0.3,1.3-0.3c2.4,0,5.2,0.2,5.8,0.2
	s2.7-0.2,4.6-0.2c0.9,0,1.3,0.1,1.3,0.3s-0.1,0.3-0.5,0.3c-0.6,0-1.3,0.1-1.9,0.2c-0.4,0.2-0.7,0.6-0.6,1c0.3,1.4,0.7,2.8,1.3,4.1
	L32.8,127.3z"/>
<path class="st0" d="M69.4,119c0,4.8,0,8.7,0.2,10.8c0.1,1.4,0.4,2.5,1.9,2.7c0.7,0.1,1.5,0.2,2.2,0.2c0.3,0,0.4,0.1,0.4,0.3
	s-0.2,0.4-0.8,0.4c-2.7,0-5.8-0.1-6.1-0.1s-3.4,0.1-4.9,0.1c-0.5,0-0.8-0.1-0.8-0.4s0.1-0.3,0.4-0.3c0.5,0,1-0.1,1.5-0.2
	c1-0.2,1.2-1.3,1.4-2.7c0.2-2.1,0.2-6,0.2-10.8v-8.7c0-7.7,0-9.1-0.1-10.7s-0.6-2.6-1.7-2.8c-0.5-0.1-1-0.2-1.5-0.2
	c-0.2,0-0.4-0.1-0.4-0.3s0.2-0.4,0.8-0.4c1.6,0,4.8,0.2,5,0.2s3.4-0.2,4.9-0.2c0.6,0,0.8,0.1,0.8,0.4s-0.2,0.3-0.4,0.3
	c-0.4,0-0.8,0.1-1.2,0.2c-1.3,0.2-1.7,1.1-1.8,2.8s-0.1,3-0.1,10.7L69.4,119z"/>
<path class="st0" d="M90.1,110.3c0-7.7,0-9.1-0.1-10.7s-0.5-2.5-2.1-2.8c-0.6-0.1-1.1-0.2-1.7-0.2c-0.2,0-0.4-0.1-0.4-0.3
	s0.2-0.4,0.8-0.4c2.2,0,5.2,0.2,5.5,0.2s3.3-0.2,4.8-0.2c0.5,0,0.8,0.1,0.8,0.4s-0.2,0.3-0.4,0.3c-0.4,0-0.8,0.1-1.2,0.2
	c-1.3,0.2-1.7,1.1-1.8,2.8s-0.1,3-0.1,10.7v3h0.2c0.8-0.9,9.8-10.1,11.6-12c1.4-1.4,2.7-2.7,2.7-3.6c0-0.4-0.2-0.8-0.6-1
	c-0.2-0.1-0.4-0.2-0.4-0.4s0.2-0.3,0.6-0.3c1,0,2.5,0.2,3.7,0.2c0.2,0,3.5-0.2,4.8-0.2c0.5,0,0.7,0.1,0.7,0.3s-0.1,0.3-0.5,0.3
	c-1,0-1.9,0.3-2.8,0.7c-2,0.9-3.1,2.1-5.4,4.3c-1.2,1.2-9.9,9.6-10.9,10.9c1.3,1.4,11.6,12.1,13.6,14c4.2,3.9,5,4.7,7.4,5.6
	c1,0.4,2,0.6,3.1,0.6c0.3,0,0.7,0.1,0.7,0.3s-0.2,0.4-1.1,0.4h-2.5c-1.4,0-2.3,0-3.4-0.1c-2.6-0.2-3.9-1.3-6-3
	c-2.2-1.8-12.7-13.2-15.1-16.1h-0.2v4.8c0,4.8,0,8.7,0.2,10.8c0.2,1.4,0.4,2.5,1.9,2.7c0.6,0.1,1.3,0.2,1.9,0.2
	c0.3,0,0.4,0.1,0.4,0.3s-0.2,0.4-0.8,0.4c-2.4,0-5.3-0.1-5.7-0.1s-3.3,0.1-4.8,0.1c-0.6,0-0.8-0.1-0.8-0.4s0.1-0.3,0.4-0.3
	c0.5,0,1-0.1,1.5-0.2c1-0.2,1.2-1.3,1.4-2.7c0.2-2.1,0.2-6,0.2-10.8L90.1,110.3z"/>
<path class="st0" d="M138.4,119c0,4.8,0,8.7,0.2,10.8c0.1,1.4,0.4,2.5,1.9,2.7c0.7,0.1,1.5,0.2,2.2,0.2c0.3,0,0.4,0.1,0.4,0.3
	s-0.2,0.4-0.8,0.4c-2.7,0-5.9-0.1-6.1-0.1s-3.4,0.1-4.9,0.1c-0.6,0-0.8-0.1-0.8-0.4s0.1-0.3,0.4-0.3c0.5,0,1-0.1,1.5-0.2
	c1-0.2,1.2-1.3,1.4-2.7c0.2-2.1,0.2-6,0.2-10.8v-8.7c0-7.7,0-9.1-0.1-10.7s-0.6-2.5-1.7-2.8c-0.5-0.1-1-0.2-1.5-0.2
	c-0.2,0-0.4-0.1-0.4-0.3s0.2-0.4,0.8-0.4c1.6,0,4.8,0.2,5,0.2s3.4-0.2,4.9-0.2c0.5,0,0.8,0.1,0.8,0.4s-0.2,0.3-0.4,0.3
	c-0.4,0-0.8,0.1-1.2,0.2c-1.3,0.2-1.7,1.1-1.8,2.8s-0.1,3-0.1,10.7L138.4,119z"/>
<path class="st0" d="M160.9,126.6c0.1,4.1,0.6,5.4,1.9,5.7c0.8,0.2,1.6,0.3,2.5,0.3c0.2,0,0.4,0.1,0.4,0.3s-0.3,0.4-0.9,0.4
	c-2.8,0-4.8-0.1-5.3-0.1s-2.5,0.1-4.8,0.1c-0.5,0-0.8,0-0.8-0.4s0.1-0.3,0.4-0.3c0.7,0,1.4-0.1,2-0.3c1.2-0.4,1.5-1.8,1.5-6.3V97.7
	c0-1.9,0.1-2.5,0.5-2.5s1.2,1.1,1.7,1.6c0.7,0.8,8.1,8.8,15.8,17c4.9,5.2,10.3,11.3,11.9,12.9l-0.6-25.2c0-3.2-0.4-4.3-1.9-4.7
	c-0.8-0.2-1.6-0.2-2.4-0.2c-0.4,0-0.4-0.2-0.4-0.3s0.4-0.3,1-0.3c2.2,0,4.6,0.2,5.2,0.2s2.2-0.2,4.2-0.2c0.5,0,0.9,0,0.9,0.3
	s-0.2,0.3-0.5,0.3c-0.4,0-0.8,0-1.2,0.2c-1.6,0.3-1.8,1.4-1.8,4.4l-0.1,29.1c0,3.3-0.1,3.5-0.4,3.5s-1-0.5-3.6-3.2
	c-0.5-0.5-7.7-7.8-12.9-13.4c-5.8-6.2-11.4-12.4-12.9-14.2L160.9,126.6z"/>
<path class="st0" d="M232.3,120.7c0-4-0.2-4.6-2.2-5.1c-0.6-0.1-1.1-0.2-1.7-0.2c-0.2,0-0.4-0.1-0.4-0.3s0.2-0.4,0.8-0.4
	c2.2,0,5.4,0.2,5.6,0.2s3.4-0.2,4.9-0.2c0.6,0,0.8,0.1,0.8,0.4s-0.2,0.3-0.4,0.3c-0.4,0-0.8,0.1-1.2,0.2c-1.3,0.2-1.7,1.1-1.8,2.8
	c-0.1,1.6-0.1,3.1-0.1,5.2v5.6c0,2.2,0,2.3-0.6,2.7c-3.2,1.7-7.6,2.2-10.5,2.2c-3.8,0-10.8-0.5-16.3-5.3c-3-2.6-5.9-7.9-5.9-14.1
	c0-7.9,3.9-13.5,8.3-16.3s9.4-3.1,13.2-3.1c2.6,0.1,5.1,0.3,7.6,0.8c1.3,0.3,2.7,0.4,4,0.5c0.5,0,0.6,0.2,0.6,0.4
	c-0.2,2.3-0.4,4.7-0.3,7c0,0.8-0.1,1-0.4,1s-0.3-0.3-0.4-0.8c-0.1-1.2-0.4-2.3-1-3.3c-1.2-1.9-5.3-4-11.6-4c-3.1,0-6.9,0.3-10.6,3.3
	c-2.9,2.3-4.9,6.8-4.9,12.6c0,5.1,1.8,10,5.3,13.7c3.4,3.5,8.1,5.4,13,5.3c1.9,0.1,3.9-0.3,5.7-1c0.7-0.3,1-1,1-1.7L232.3,120.7z"/>
<path class="st0" d="M92.6,16h7.3c20.8,14.8,29.5,23.3,28,30.7c-1.8,8.7-12.7,15.1-35.2,25l-3.1-0.2c25.7-10.8,34.9-19.7,33-27
	C120.6,36.8,112.9,31.5,92.6,16L92.6,16z"/>
<path class="st0" d="M107.1,15.9h7.2c21.5,14.7,27,24.5,23.7,30.4c-5.7,10.3-18.9,16.8-39.8,25.1l-3,0.2c22.5-9.7,37.4-18,38.2-27.1
	C134.1,37,127.6,31.3,107.1,15.9L107.1,15.9z"/>
<path class="st0" d="M121.5,16h7.2c20.8,14.7,24.1,23.7,19.6,30.6c-6.8,10.5-22.4,16.8-44,25.1h-3.2c27-11.1,38.4-17.4,42-25.4
	C147.4,36.9,139.9,30.2,121.5,16L121.5,16z"/>
<path class="st0" d="M135.9,16h7.2c19.5,16.4,20.3,24.3,16.1,30.2c-7.3,10.2-29.6,20.3-49.1,25.5h-3.2c23.5-8.2,39.9-14.3,46.9-25.7
	C158.8,38.1,153.8,30.9,135.9,16L135.9,16z"/>
<path class="st0" d="M150.4,16h7.2c12,12.5,16.3,23.1,12,30.3c-8.5,14.4-36.1,21.3-53.7,25.4h-3.2c24-6.5,45.5-14,51.5-25.5
	C167.6,39.6,165.6,31,150.4,16z"/>
<path class="st0" d="M179.3,32c3.9,30.9-25.3,36.5-25.6,36.8c-1.9,0.6-6.3,1.7-6.3,1.7c-17.8,3.5-42.5,3.8-55.3,1.8
	c-13.6-2-23-6.5-25.1-14.7c10.3,16.2,59.7,16.3,85.8,8.3c16.9-6.1,24.1-16.8,23.9-32.8l0,0c-0.1-1.7-0.1-5.9,1.6-7.9
	c2.4-2.7,8.3-1.8,8.9,2.2c0.8,5.8-7.2,5.9-6.9,1.2c0.2-2.3,3.9-3.2,4.6-0.9c0.3,0.9-0.3,1.9-1.2,2.1c-0.5,0.1-1,0.1-1.4-0.2
	c-0.6-0.4-0.6-0.6-0.4-1c0.2-0.3,0.6-0.3,0.8-0.1l0.1,0.1c0.1,0.3,0.4,0.5,0.7,0.4h0.1c0.7-0.4,0.1-1.9-1.3-1.4
	c-0.8,0.5-1.1,1.5-0.6,2.3c0.1,0.2,0.3,0.4,0.5,0.5c3.1,1.5,4.6-2.3,2.8-4.2c-0.6-0.7-1.5-1-2.4-0.9C179.6,25.6,179.2,28.9,179.3,32
	"/>
<path class="st0" d="M160.5,81.5c0,0,5.3,0.3,13.5-3.5c7.6-3.6,24.1-15.9,8.2-41.5c-0.4,4.5-0.4,18.7-14,28.2
	c-12.7,10.1-67.4,14.8-90,6C68.8,66.2,67,60.8,67,60.8s1.9,20,10.8,20.5L160.5,81.5z"/>
<path class="st0" d="M184.8,75.5c1.9,0,3.4,1.5,3.4,3.4s-1.5,3.4-3.4,3.4s-3.4-1.5-3.4-3.4l0,0C181.4,77,182.9,75.5,184.8,75.5
	C184.7,75.5,184.8,75.5,184.8,75.5z M184.8,76c-1.6-0.1-2.9,1.1-3,2.7s1.1,2.9,2.7,3c1.6,0.1,2.9-1.1,3-2.7v-0.1
	C187.5,77.3,186.3,76,184.8,76L184.8,76L184.8,76z M184.2,80.8h-0.6V77c0.4-0.1,0.7-0.1,1.1-0.1c0.4,0,0.8,0.1,1.2,0.3
	c0.2,0.2,0.4,0.5,0.4,0.8c0,0.4-0.3,0.8-0.7,0.9l0,0c0.3,0.1,0.6,0.4,0.6,0.9c0,0.3,0.1,0.6,0.2,0.9h-0.6c-0.1-0.3-0.2-0.7-0.2-1
	c0-0.4-0.3-0.7-0.7-0.7h-0.1h-0.4v1.8H184.2z M184.2,78.7h0.4c0.5,0,0.9-0.2,0.9-0.7s-0.2-0.7-0.9-0.7c-0.1,0-0.3,0-0.4,0V78.7z"/>
<rect x="89.7" y="15.3" class="st0" width="70.5" height="1"/>
<rect x="127.1" y="9.9" class="st0" width="1" height="5.8"/>
</svg>
